<svg width="503.61000000000007" height="503.61000000000007" xmlns="http://www.w3.org/2000/svg">
 <g>
  <title>background</title>
  <rect x="-1" y="-1" width="505.61" height="505.61" id="canvas_background" fill="none"/>
 </g>

 <g>
  <title>Layer 1</title>
  <path d="m291.313,2.459c-1.578,-1.578 -3.71,-2.459 -5.934,-2.459l-276.984,0c-4.633,0 -8.393,3.76 -8.393,8.393l0,486.82c0,4.633 3.76,8.393 8.393,8.393l352.525,0c4.633,0 8.393,-3.76 8.393,-8.393l0,-411.279c0,-2.224 -0.881,-4.365 -2.459,-5.934l-75.541,-75.541zm-173.803,165.41l134.295,0c4.633,0 8.393,3.76 8.393,8.393s-3.76,8.393 -8.393,8.393l-134.295,0c-4.633,0 -8.393,-3.76 -8.393,-8.393s3.76,-8.393 8.393,-8.393zm134.295,218.229l-134.295,0c-4.633,0 -8.393,-3.76 -8.393,-8.393c0,-4.633 3.76,-8.393 8.393,-8.393l134.295,0c4.633,0 8.393,3.76 8.393,8.393c0,4.633 -3.76,8.393 -8.393,8.393zm33.574,-50.36l-201.443,0c-4.633,0 -8.393,-3.76 -8.393,-8.393c0,-4.633 3.76,-8.393 8.393,-8.393l201.443,0c4.633,0 8.393,3.76 8.393,8.393c0,4.632 -3.76,8.393 -8.393,8.393zm-176.263,-58.754c0,-4.633 3.76,-8.393 8.393,-8.393l134.295,0c4.633,0 8.393,3.76 8.393,8.393c0,4.633 -3.76,8.393 -8.393,8.393l-134.294,0c-4.633,0 -8.394,-3.76 -8.394,-8.393zm176.263,-41.968l-201.443,0c-4.633,0 -8.393,-3.76 -8.393,-8.393s3.76,-8.393 8.393,-8.393l201.443,0c4.633,0 8.393,3.76 8.393,8.393s-3.76,8.393 -8.393,8.393zm8.393,-159.475l0,-46.886l46.886,46.886l-46.886,0z" id="svg_4" fill="#ffffff"/>
  <path d="m495.215,40.626367l0,-20.983c0,-11.575 -9.409,-20.984 -20.984,-20.984l-8.393,0c-11.575,0 -20.984,9.409 -20.984,20.984l0,20.984c-4.633,0 -8.393,3.76 -8.393,8.393l0,3.206l-28.932,14.462c-0.386,0.193 -0.629,0.52 -0.974,0.764c-0.487,0.344 -0.99,0.646 -1.393,1.083c-0.378,0.411 -0.621,0.881 -0.906,1.351c-0.277,0.445 -0.579,0.865 -0.772,1.368c-0.218,0.571 -0.269,1.175 -0.361,1.779c-0.059,0.403 -0.235,0.755 -0.235,1.167l0,109.115c0,4.633 3.76,8.393 8.393,8.393s8.393,-3.76 8.393,-8.393l0,-103.928l16.787,-8.393l0,213.042l67.148,0l0,-235.016c-0.001,-4.634 -3.761,-8.394 -8.394,-8.394zm-16.787,0l-16.787,0l0,-20.983c0,-2.317 1.88,-4.197 4.197,-4.197l8.393,0c2.317,0 4.197,1.88 4.197,4.197l0,20.983z" id="svg_5" fill="#ffaa56"/>
  <rect x="436.461" y="369.311" width="67.148" height="16.787" id="svg_6" fill="#ffff56"/>
  <rect x="436.461" y="402.885" width="67.148" height="16.787" id="svg_7" fill="#ffaa56"/>
  <rect x="436.461" y="333.056747" width="67.148" height="16.787" id="svg_8" fill="#ffaa56"/>
  <path d="m453.678,481.082c1.142,3.425 4.348,5.741 7.965,5.741l0,8.393c0,4.633 3.752,8.393 8.393,8.393c4.633,0 8.393,-3.76 8.393,-8.393l0,-8.393c3.609,0 6.815,-2.317 7.957,-5.741l14.882,-44.62l-62.464,0l14.874,44.62z" id="svg_9" fill="#ffff56"/>
  <rect x="436.461" y="302.164" width="67.148" height="16.787" id="svg_10" fill="#ffff56"/>
 </g>
</svg>