<svg width="512.001" height="512.001" xmlns="http://www.w3.org/2000/svg">
 <g>
  <title>background</title>
  <rect fill="none" id="canvas_background" height="515.092687" width="515.092687" y="-1" x="-1"/>
 </g>

 <g>
  <title>Layer 1</title>
  <path fill="#aaff56" id="svg_5" d="m86.976,230.452l72.405,72.414l14.234,-14.234c-5.453,-11.452 -6.4,-24.346 -2.978,-36.207c-8.465,-0.205 -16.87,-3.456 -23.322,-9.899c-6.451,-6.451 -10.001,-15.027 -10.001,-24.141c0,-9.114 3.55,-17.69 10.001,-24.132c12.894,-12.902 35.379,-12.902 48.273,0c6.443,6.443 9.702,14.848 9.907,23.313c11.861,-3.422 24.755,-2.466 36.207,2.987l14.225,-14.234l-72.414,-72.405l-96.537,96.538z"/>
  <path fill="#e5e5e5" id="svg_7" d="m463.582,321.007c0.009,-2.278 -0.887,-4.463 -2.5,-6.076l-265.498,-265.498c-3.2,-3.2 -8.866,-3.2 -12.066,0l-181.018,181.026c-1.604,1.604 -2.5,3.772 -2.5,6.05c0.009,2.261 0.913,4.437 2.517,6.033l264.533,262.716c1.664,1.647 3.84,2.475 6.016,2.475c2.159,0 4.309,-0.811 5.973,-2.432l181.973,-178.244c1.631,-1.596 2.553,-3.772 2.57,-6.05zm-93.013,-36.25c3.337,3.337 3.337,8.738 0,12.066l-84.471,84.48c-1.664,1.664 -3.849,2.5 -6.033,2.5c-2.185,0 -4.369,-0.836 -6.033,-2.5c-3.337,-3.337 -3.337,-8.738 0,-12.066l84.471,-84.48c3.336,-3.328 8.738,-3.328 12.066,0zm-60.331,-60.339c3.328,3.336 3.328,8.73 0,12.066l-36.207,36.207c-1.664,1.664 -3.849,2.5 -6.033,2.5c-2.185,0 -4.369,-0.836 -6.033,-2.5c-3.337,-3.336 -3.337,-8.738 0,-12.066l36.198,-36.207c3.337,-3.337 8.738,-3.337 12.075,0zm-150.852,99.046c-2.261,0 -4.437,-0.905 -6.033,-2.5l-84.48,-84.48c-3.328,-3.337 -3.328,-8.73 0,-12.066l108.612,-108.612c3.337,-3.328 8.73,-3.328 12.066,0l84.48,84.48c1.596,1.596 2.5,3.772 2.5,6.033c0,2.261 -0.904,4.429 -2.5,6.033l-108.612,108.612c-1.605,1.596 -3.772,2.5 -6.033,2.5zm24.132,36.207c-2.185,0 -4.369,-0.836 -6.033,-2.5c-3.337,-3.337 -3.337,-8.738 0,-12.066l60.339,-60.348c3.336,-3.328 8.738,-3.328 12.066,0c3.337,3.337 3.337,8.738 0,12.066l-60.339,60.348c-1.664,1.664 -3.849,2.5 -6.033,2.5zm30.174,30.165c-2.185,0 -4.369,-0.836 -6.033,-2.5c-3.337,-3.337 -3.337,-8.738 0,-12.066l120.678,-120.678c3.328,-3.337 8.73,-3.337 12.066,0c3.328,3.328 3.328,8.73 0,12.066l-120.678,120.678c-1.673,1.664 -3.857,2.5 -6.033,2.5zm48.264,15.599l-12.066,12.066c-1.664,1.672 -3.849,2.5 -6.033,2.5c-2.185,0 -4.36,-0.828 -6.033,-2.5c-3.328,-3.328 -3.328,-8.73 0,-12.066l12.066,-12.066c3.337,-3.328 8.738,-3.328 12.066,0c3.337,3.337 3.337,8.738 0,12.066zm66.381,-6.033l-48.273,48.273c-1.664,1.664 -3.849,2.5 -6.033,2.5c-2.185,0 -4.369,-0.836 -6.033,-2.5c-3.336,-3.336 -3.336,-8.73 0,-12.066l48.273,-48.273c3.328,-3.328 8.73,-3.328 12.066,0c3.328,3.337 3.328,8.738 0,12.066zm72.405,-72.405l-48.273,48.273c-1.664,1.664 -3.849,2.5 -6.033,2.5c-2.185,0 -4.361,-0.836 -6.033,-2.5c-3.328,-3.336 -3.328,-8.738 0,-12.066l48.273,-48.273c3.337,-3.337 8.73,-3.337 12.066,0c3.337,3.336 3.337,8.729 0,12.066z"/>
  <polygon fill="#ffffaa" id="svg_8" points="366.934,64.001 298.668,64.001 298.668,128.385 319.617,149.335 366.934,149.335    "/>
  <path fill="#b2b2b2" id="svg_9" d="m503.468,4.268l-256,0c-4.71,0 -8.533,3.823 -8.533,8.533l0,55.842l42.667,42.675l0,-55.85c0,-4.71 3.823,-8.533 8.533,-8.533l85.333,0c4.71,0 8.533,3.823 8.533,8.533l0,102.4c0,4.71 -3.823,8.533 -8.533,8.533l-38.784,0l25.6,25.6l98.517,0c4.71,0 8.533,3.823 8.533,8.533s-3.823,8.533 -8.533,8.533l-81.451,0l25.6,25.6l55.851,0c4.71,0 8.533,3.823 8.533,8.533c0,4.71 -3.823,8.533 -8.533,8.533l-38.784,0l25.6,25.6l13.184,0c4.71,0 8.533,3.823 8.533,8.533c0,3.567 -2.193,6.605 -5.299,7.885l9.114,9.114c4.804,4.796 7.535,11.443 7.501,18.236c-0.043,6.784 -2.842,13.406 -7.689,18.15l-23.91,23.415l11.75,0c4.71,0 8.533,3.823 8.533,8.533s-3.823,8.533 -8.533,8.533l-29.175,0l-26.138,25.6l55.313,0c4.71,0 8.533,3.823 8.533,8.533c0,4.71 -3.823,8.533 -8.533,8.533l-72.738,0l-43.563,42.67l158.967,0c4.71,0 8.533,-3.823 8.533,-8.533l0,-443.734c0.001,-4.71 -3.822,-8.533 -8.532,-8.533zm-42.667,153.6l-51.2,0c-4.71,0 -8.533,-3.823 -8.533,-8.533s3.823,-8.533 8.533,-8.533l51.2,0c4.71,0 8.533,3.823 8.533,8.533s-3.823,8.533 -8.533,8.533zm-59.733,-51.2c0,-4.71 3.823,-8.533 8.533,-8.533l34.133,0c4.71,0 8.533,3.823 8.533,8.533c0,4.71 -3.823,8.533 -8.533,8.533l-34.133,0c-4.71,0 -8.533,-3.823 -8.533,-8.533zm59.733,-34.133l-51.2,0c-4.71,0 -8.533,-3.823 -8.533,-8.533s3.823,-8.533 8.533,-8.533l51.2,0c4.71,0 8.533,3.823 8.533,8.533s-3.823,8.533 -8.533,8.533z"/>
 </g>
</svg>