<svg width="376" height="376" xmlns="http://www.w3.org/2000/svg">
 <g>
  <title>background</title>
  <rect fill="none" id="canvas_background" height="506.078121" width="506.078121" y="-1" x="-1"/>
 </g>

 <g>
  <title>Layer 1</title>
  <path fill="#ffffff" id="svg_2" d="m366,341l-346,0l0,-316c0,-5.523 -4.477,-10 -10,-10c-5.523,0 -10,4.477 -10,10l0,326c0,5.523 4.477,10 10,10l356,0c5.523,0 10,-4.477 10,-10s-4.477,-10 -10,-10z"/>
  <path fill="#56aaff" id="svg_3" d="m28.758,316.126c0,0.553 0.448,1 1,1l22.18,0l59.458,0l46.875,0l59.458,0l46.876,0l59.458,0l22.18,0c0.553,0 1,-0.447 1,-1c0,-0.553 -0.447,-1 -1,-1l-17.805,0c0.885,-1.019 1.425,-2.345 1.425,-3.801l0,-54.199l16.38,0c0.553,0 1,-0.447 1,-1c0,-0.553 -0.447,-1 -1,-1l-16.38,0l0,-58l16.38,0c0.553,0 1,-0.447 1,-1c0,-0.553 -0.447,-1 -1,-1l-16.38,0l0,-29.408c-9.423,8.48 -21.883,13.654 -35.529,13.654c-13.257,0 -25.889,-5.019 -35.528,-13.675l0,29.429l-35.276,0l0,-8.888c-0.288,0.261 -0.564,0.534 -0.858,0.789c-9.643,8.31 -21.955,12.884 -34.67,12.884c-12.715,0 -25.028,-4.574 -34.67,-12.884c-0.295,-0.255 -0.57,-0.528 -0.859,-0.789l0,8.888l-35.276,0l0,-29.429c-9.64,8.656 -22.272,13.675 -35.529,13.675c-13.646,0 -26.105,-5.174 -35.529,-13.654l0,29.408l-16.38,0c-0.552,0 -1,0.447 -1,1c0,0.553 0.448,1 1,1l16.38,0l0,58l-16.38,0c-0.552,0 -1,0.447 -1,1c0,0.553 0.448,1 1,1l16.38,0l0,54.199c0,1.456 0.54,2.782 1.425,3.801l-17.806,0c-0.552,0 -1,0.447 -1,1zm231.471,-1l-38.126,0c0.885,-1.019 1.425,-2.345 1.425,-3.801l0,-54.199l35.276,0l0,54.199c0.001,1.456 0.54,2.782 1.425,3.801zm-1.424,-118l0,58l-35.276,0l0,-58l35.276,0zm-141.61,0l35.276,0l0,58l-35.276,0l0,-58zm0,114.199l0,-54.199l35.276,0l0,54.199c0,1.456 0.539,2.782 1.425,3.801l-38.125,0c0.885,-1.019 1.424,-2.345 1.424,-3.801z"/>
  <path fill="#ff5656" id="svg_4" d="m29.758,137.126l14.823,0c4.726,16.017 19.558,27.746 37.085,27.746c14.303,0 26.807,-7.813 33.496,-19.389l34.658,7.369c2.938,18.429 18.938,32.559 38.18,32.559c19.242,0 35.242,-14.13 38.18,-32.559l34.658,-7.369c6.689,11.576 19.192,19.389 33.495,19.389c17.528,0 32.36,-11.729 37.086,-27.746l14.823,0c0.553,0 1,-0.447 1,-1c0,-0.553 -0.447,-1 -1,-1l-14.293,0c0.68,-2.866 1.051,-5.851 1.051,-8.921c0,-21.321 -17.346,-38.667 -38.667,-38.667c-21.32,0 -38.666,17.346 -38.666,38.667c0,0.204 0.012,0.406 0.015,0.61l-31.359,6.668c-5.424,-14.808 -19.658,-25.405 -36.322,-25.405c-16.664,0 -30.898,10.598 -36.323,25.405l-31.359,-6.668c0.003,-0.204 0.015,-0.406 0.015,-0.61c0,-21.321 -17.346,-38.667 -38.667,-38.667c-21.321,0 -38.667,17.346 -38.667,38.667c0,3.07 0.371,6.055 1.05,8.921l-14.292,0c-0.552,0 -1,0.447 -1,1c0,0.553 0.448,1 1,1zm264.575,-30.254c10.661,0 19.334,8.672 19.334,19.333c0,10.66 -8.673,19.333 -19.334,19.333c-10.66,0 -19.333,-8.673 -19.333,-19.333c0,-10.661 8.673,-19.333 19.333,-19.333zm-106.333,20.539c10.661,0 19.333,8.674 19.333,19.334c0,10.661 -8.672,19.333 -19.333,19.333c-10.661,0 -19.333,-8.672 -19.333,-19.333c0,-10.66 8.672,-19.334 19.333,-19.334zm-106.334,-20.539c10.661,0 19.334,8.672 19.334,19.333c0,10.66 -8.673,19.333 -19.334,19.333c-10.661,0 -19.333,-8.673 -19.333,-19.333c0,-10.661 8.673,-19.333 19.333,-19.333z"/>
  <path fill="#56aaff" id="svg_5" d="m29.758,77.126l316.484,0c0.553,0 1,-0.447 1,-1c0,-0.553 -0.447,-1 -1,-1l-316.484,0c-0.552,0 -1,0.447 -1,1c0,0.553 0.448,1 1,1z"/>
 </g>
</svg>