<svg width="483.18800000000005" height="483.18800000000005" xmlns="http://www.w3.org/2000/svg">
 <g>
  <title>background</title>
  <rect x="-1" y="-1" width="96.923929" height="96.923929" id="canvas_background" fill="none"/>
 </g>

 <g>
  <title>Layer 1</title>
  <path d="m465.267,344.166c-9.2,-0.7 -28.3,9.7 -33.6,12.3c-18.7,9.4 -44.5,24.1 -61.5,35.8c-1.2,0.8 -2.8,1.9 -4,2.6c-7.6,4.9 -15.7,8.2 -24.7,10.1c-49.4,10.5 -121.4,11.7 -121.4,11.7l-4.2,0.2c-3.2,0.2 -6,-2 -6.4,-5.1c-0.5,-3.4 2,-6.5 5.5,-6.8l107.1,-10.2c11.8,-1.3 21.2,-12.3 19.9,-24.7c-1.3,-12.4 -12.7,-21.5 -24.5,-20.2l-95.2,-1.2c-6.5,-0.1 -16.9,-1.7 -23.1,-3.5c-61.4,-17.9 -96,-1.1 -114.4,6.7c-4.1,-6.8 -11.9,-11.2 -20.6,-10.6l-41.1,2.7c-13.7,0.9 -24,12.3 -23,25.5l6.6,91.2c0.9,13.2 12.8,23.1 26.4,22.2l41.1,-2.7c8.7,-0.6 15.7,-5.9 18.8,-13.2l180.4,7.8c20.1,2.1 38.9,-0.3 56.6,-9.6l5.2,-2.7l136.3,-79.8c6.7,-3.9 11.5,-10.7 11.7,-18.3c0.4,-9.1 -4.9,-19.3 -17.9,-20.2zm-417.1,117.1c-7.7,0 -14,-6 -14,-13.5s6.3,-13.5 14,-13.5s14,6 14,13.5s-6.3,13.5 -14,13.5z" id="svg_3" fill="#e5e5e5"/>
  <path d="m368.167,372.566c13.9,-9.7 42.4,-25.2 58.5,-33.3c4.9,-2.4 10,-4.9 15.5,-6.8c-7,-4.7 -14.5,-4.9 -22.3,-1.9c-15.3,6.1 -43.5,19.7 -57.9,27.5c-0.1,0.2 -0.2,0.4 -0.2,0.6c1,3 1.8,6.1 2.1,9.3c0.3,2.6 0.2,5.1 0.1,7.6c1.3,-1 2.7,-2 4.2,-3z" id="svg_4" fill="#e5e5e5"/>
  <path d="m404.967,321.466c-7,-4.5 -14.4,-4.7 -22,-1.7c-9.5,3.7 -30.6,10.6 -40,15.6c4,2.5 7.6,5.6 10.7,9.2c0.6,-0.4 1.2,-0.9 1.9,-1.3l6.9,-3.8c10,-5.5 31.5,-13.1 42.5,-18z" id="svg_5" fill="#e5e5e5"/>
  <path d="m391.267,144.066c26.7,-11.4 45.5,-38 45.5,-68.9c0,-41.4 -33.6,-74.9 -74.9,-74.9s-74.9,33.6 -74.9,74.9c0,0.4 0.1,0.8 0.1,1.2c44.5,4.7 82.7,30.8 104.2,67.7z" id="svg_6" fill="#ffffaa"/>
  <path d="m272.767,321.566c60.1,0 108.8,-48.7 108.8,-108.8s-48.7,-108.8 -108.8,-108.8s-108.8,48.7 -108.8,108.8s48.7,108.8 108.8,108.8zm-38,-65.8c1,-3.6 2,-7.2 3.1,-10.7c1.3,-4.1 2.4,-4.6 6.2,-2.7c6.5,3.4 13.3,5.2 20.5,6.1c4.6,0.6 9.2,0.1 13.4,-1.8c8,-3.5 9.3,-12.8 2.5,-18.3c-2.3,-1.9 -4.9,-3.3 -7.6,-4.5c-7,-3.1 -14.3,-5.4 -21,-9.4c-10.7,-6.4 -17.6,-15.3 -16.8,-28.3c0.9,-14.8 9.3,-24 22.8,-28.9c5.6,-2 5.6,-2 5.7,-7.8c0,-2 0,-4 0,-5.9c0.1,-4.4 0.9,-5.2 5.2,-5.3c1.4,0 2.7,0 4.1,0c9.3,0 9.3,0 9.4,9.3c0,6.6 0,6.6 6.6,7.7c5,0.8 9.9,2.3 14.5,4.3c2.6,1.1 3.5,2.9 2.8,5.6c-1.2,4 -2.3,8.1 -3.6,12.1c-1.2,3.8 -2.4,4.3 -6.1,2.6c-7.3,-3.5 -15,-5 -23,-4.6c-2.1,0.1 -4.2,0.4 -6.1,1.3c-7,3 -8.1,10.7 -2.2,15.5c3,2.4 6.4,4.1 10,5.6c6.2,2.6 12.4,5 18.2,8.2c18.7,10.3 23.7,33.8 10.5,49.7c-4.8,5.8 -10.9,9.7 -18.1,11.6c-3.1,0.9 -4.6,2.5 -4.4,5.8c0.1,3.2 0,6.4 0,9.6c0,2.9 -1.5,4.4 -4.3,4.5c-3.5,0.1 -6.9,0.1 -10.4,0c-3,-0.1 -4.5,-1.8 -4.5,-4.7c0,-2.3 0,-4.7 -0.1,-7c-0.1,-5.2 -0.2,-5.4 -5.2,-6.2c-6.4,-1 -12.6,-2.5 -18.5,-5.3c-4.5,-2.1 -4.9,-3.3 -3.6,-8.1z" id="svg_7" fill="#ffff56"/>
 </g>
</svg>