<svg width="113.50000000000001" height="113.50000000000001" xmlns="http://www.w3.org/2000/svg">

 <g>
  <title>background</title>
  <rect fill="none" id="canvas_background" height="402" width="582" y="-1" x="-1"/>
 </g>
 <g>
  <title>Layer 1</title>
  <path fill="#aaff56" id="svg_3" d="m103.75,9.766c0,-0.828 -0.671,-1.5 -1.5,-1.5l-20.334,0c-0.828,0 -1.5,0.672 -1.5,1.5l0,14.634l0,21.54l23.334,-27.355l0,-8.819z"/>
  <path fill="#aaff56" id="svg_4" d="m80.416,89.1l0,14.635c0,0.828 0.672,1.5 1.5,1.5l20.334,0c0.829,0 1.5,-0.672 1.5,-1.5l0,-27.682l0,-4.605l0,-37.453l-23.334,27.357l0,27.748z"/>
  <path fill="#56aaff" id="svg_5" d="m44.083,83.795l0,9.459l0,10.479c0,0.828 0.671,1.5 1.5,1.5l20.334,0c0.828,0 1.5,-0.672 1.5,-1.5l0,-7.301l0,-29.416l-10.062,-2.939l-13.272,19.718z"/>
  <path fill="#56aaff" id="svg_6" d="m56.652,53.451l10.765,3.146l0,-16.032l0,-7.301c0,-0.828 -0.672,-1.5 -1.5,-1.5l-20.334,0c-0.829,0 -1.5,0.672 -1.5,1.5l0,10.48l0,22.14l7.019,-10.428c1.215,-1.807 3.46,-2.617 5.55,-2.005z"/>
  <path fill="#ff5656" id="svg_7" d="m24.888,64.899l8.196,7.904l0,-9.712l0,-12.325c0,-0.828 -0.672,-1.5 -1.5,-1.5l-20.334,0c-0.829,0 -1.5,0.672 -1.5,1.5l0,15.67l0,5.18l8.493,-6.979c1.96,-1.614 4.818,-1.498 6.645,0.262z"/>
  <path fill="#ff5656" id="svg_8" d="m9.75,84.559l0,3.506l0,15.67c0,0.828 0.671,1.5 1.5,1.5l20.334,0c0.828,0 1.5,-0.672 1.5,-1.5l0,-17.038l-11.934,-11.509l-11.4,9.371z"/>
  <path fill="#ffffff" id="svg_9" d="m112.623,16.585c-1.049,-0.895 -2.628,-0.771 -3.524,0.28l-37.451,43.905l-15.446,-4.516c-1.046,-0.309 -2.168,0.1 -2.775,1.004l-15.838,23.527l-14.188,-13.681c-0.913,-0.881 -2.341,-0.938 -3.323,-0.132l-19.165,15.751c-1.066,0.877 -1.221,2.451 -0.344,3.52c0.495,0.602 1.211,0.912 1.933,0.912c0.559,0 1.121,-0.188 1.586,-0.568l17.447,-14.337l14.73,14.205c0.532,0.512 1.259,0.76 1.999,0.687c0.735,-0.078 1.397,-0.478 1.81,-1.091l16.479,-24.483l15.245,4.457c0.944,0.272 1.964,-0.026 2.604,-0.776l38.5,-45.137c0.896,-1.051 0.771,-2.631 -0.279,-3.527z"/>
 </g>
</svg>