<svg width="225.99999999999997" height="52.00000000000001" xmlns="http://www.w3.org/2000/svg">
 <g>
  <title>Layer 1</title>
  <path id="svg_1" fill="#558" d="m8.48,34.37c0,-1.8 -0.616,-3.098 -1.848,-3.863c-1.213,-0.765 -2.986,-1.148 -5.32,-1.148l0,-6.7c1.157,0 2.184,-0.083 3.08,-0.252c0.915,-0.186 1.68,-0.476 2.296,-0.868c0.616,-0.4 1.073,-0.933 1.372,-1.568c0.317,-0.635 0.457,-1.4 0.42,-2.295l0,-8.903c0,-1.38 0.177,-2.557 0.532,-3.527c0.355,-1 1,-1.792 1.904,-2.408c0.933,-0.634 2.193,-1.1 3.78,-1.4s3.601,-0.438 6.047,-0.438l0,6.3a13.85,13.85 0 0 0 -2.044,0.196c-0.597,0.113 -1.1,0.317 -1.54,0.616c-0.4,0.28 -0.728,0.672 -0.952,1.176s-0.336,1.157 -0.336,1.96l0,8.37c-0.112,3.5 -2.296,5.562 -6.55,6.215l0,0.336c2.146,0.317 3.8,1 4.927,2.016s1.68,2.417 1.624,4.17l0,8.37c0,0.803 0.112,1.456 0.336,1.96s0.54,0.896 0.952,1.176c0.43,0.3 0.943,0.504 1.54,0.616c0.616,0.113 1.297,0.177 2.044,0.196l0,6.327c-2.445,0 -4.46,-0.15 -6.047,-0.448s-2.846,-0.765 -3.78,-1.4c-0.915,-0.616 -1.55,-1.42 -1.904,-2.408s-0.532,-2.174 -0.532,-3.555l0,-8.82m209.04,8.82c0,1.38 -0.177,2.566 -0.532,3.555s-1,1.792 -1.932,2.408c-0.915,0.634 -2.165,1.1 -3.75,1.4s-3.594,0.448 -6.049,0.448l0,-6.327c0.747,-0.022 1.418,-0.085 2.016,-0.196s1.1,-0.317 1.512,-0.616c0.43,-0.28 0.756,-0.672 0.98,-1.176c0.243,-0.504 0.364,-1.157 0.364,-1.96l0,-8.37c-0.056,-1.754 0.485,-3.145 1.624,-4.17s2.772,-1.698 4.9,-2.016l0,-0.336c-4.237,-0.653 -6.4,-2.725 -6.523,-6.215l0,-8.37c0,-0.802 -0.12,-1.456 -0.364,-1.96a2.65,2.65 0 0 0 -0.98,-1.176c-0.4,-0.298 -0.915,-0.504 -1.512,-0.616a12.77,12.77 0 0 0 -2.016,-0.196l0,-6.3c2.445,0 4.46,0.15 6.047,0.448s2.837,0.765 3.75,1.4c0.933,0.616 1.577,1.418 1.932,2.408c0.355,0.97 0.532,2.146 0.532,3.527l0,8.903c-0.02,0.896 0.12,1.66 0.42,2.295s0.756,1.157 1.372,1.568c0.616,0.392 1.372,0.68 2.268,0.868c0.915,0.168 1.95,0.252 3.108,0.252l0,6.7c-2.333,0 -4.115,0.382 -5.347,1.148c-1.213,0.765 -1.82,2.053 -1.82,3.863l0,8.82"/>
  <g id="svg_2" stroke-width="2.129" stroke="#000">
   <path id="svg_3" d="m32.718,44.923c-0.636,0 -1.2,-0.043 -1.666,-0.132c-0.474,-0.075 -0.886,-0.18 -1.235,-0.318l0,-2.993a10.45,10.45 0 0 0 1.366,0.262a10.33,10.33 0 0 0 1.572,0.113a5.25,5.25 0 0 0 1.385,-0.187a3.07,3.07 0 0 0 1.273,-0.636c0.387,-0.312 0.7,-0.742 0.936,-1.3s0.356,-1.248 0.356,-2.096l0,-27.36l3.5,0l0,26.994c0,1.3 -0.187,2.445 -0.56,3.406c-0.362,0.96 -0.873,1.753 -1.535,2.377c-0.65,0.636 -1.435,1.104 -2.358,1.404c-0.9,0.312 -2.154,0.468 -3.265,0.468m25.113,-10.125l-0.15,0c-0.412,0.56 -0.823,1.048 -1.235,1.46a6.05,6.05 0 0 1 -1.347,0.992c-0.487,0.262 -1.03,0.455 -1.628,0.58s-1.3,0.187 -2.077,0.187c-0.86,0 -1.653,-0.126 -2.377,-0.374a5.04,5.04 0 0 1 -1.89,-1.104c-0.524,-0.5 -0.936,-1.148 -1.235,-1.9c-0.3,-0.773 -0.45,-1.684 -0.45,-2.732c0,-2.046 0.717,-3.618 2.152,-4.716c1.447,-1.098 3.643,-1.697 6.587,-1.797l3.443,-0.132l0,-1.3c0,-0.836 -0.094,-1.535 -0.28,-2.096c-0.175,-0.56 -0.437,-1 -0.786,-1.347c-0.337,-0.35 -0.76,-0.6 -1.273,-0.75c-0.5,-0.15 -1.073,-0.224 -1.722,-0.224a9.1,9.1 0 0 0 -2.901,0.449c-0.886,0.3 -1.74,0.66 -2.564,1.085l-1.198,-2.564c0.923,-0.5 1.952,-0.923 3.088,-1.273a12.09,12.09 0 0 1 3.574,-0.524c1.273,0 2.37,0.132 3.294,0.393c0.936,0.25 1.703,0.655 2.302,1.216c0.6,0.55 1.067,1.254 1.366,2.115s0.45,1.903 0.45,3.125l0,14.073l-2.458,0l-0.685,-2.842zm-5.558,0.458c0.76,0 1.466,-0.12 2.115,-0.356s1.2,-0.593 1.684,-1.067c0.474,-0.487 0.842,-1.092 1.104,-1.815c0.274,-0.736 0.412,-1.597 0.412,-2.583l0,-1.853l-2.676,0.132c-1.123,0.05 -2.065,0.175 -2.826,0.374s-1.372,0.48 -1.834,0.842a2.99,2.99 0 0 0 -0.973,1.291c-0.2,0.5 -0.3,1.067 -0.3,1.703c0,1.148 0.3,2 0.898,2.526c0.6,0.537 1.4,0.805 2.395,0.805m11.56,-18.16l3.518,0l3.724,11.433l0.487,1.6l0.56,1.984l0.505,1.9l0.318,1.366l0.13,0l0.318,-1.366l0.505,-1.9l0.56,-1.984l0.487,-1.6l3.724,-11.434l3.518,0l-7.018,20.548l-4.324,0l-7.012,-20.547zm32.272,17.703l-0.15,0c-0.412,0.56 -0.823,1.048 -1.235,1.46a6.05,6.05 0 0 1 -1.347,0.992c-0.487,0.262 -1.03,0.455 -1.628,0.58s-1.3,0.187 -2.077,0.187c-0.86,0 -1.653,-0.126 -2.377,-0.374a5.04,5.04 0 0 1 -1.89,-1.104c-0.524,-0.5 -0.936,-1.148 -1.235,-1.9c-0.3,-0.773 -0.45,-1.684 -0.45,-2.732c0,-2.046 0.717,-3.618 2.152,-4.716c1.447,-1.098 3.643,-1.697 6.587,-1.797l3.443,-0.132l0,-1.3c0,-0.836 -0.094,-1.535 -0.28,-2.096c-0.175,-0.56 -0.437,-1 -0.786,-1.347c-0.337,-0.35 -0.76,-0.6 -1.273,-0.75c-0.5,-0.15 -1.073,-0.224 -1.722,-0.224a9.1,9.1 0 0 0 -2.901,0.449c-0.886,0.3 -1.74,0.66 -2.564,1.085l-1.198,-2.564c0.923,-0.5 1.952,-0.923 3.088,-1.273a12.09,12.09 0 0 1 3.574,-0.524c1.273,0 2.37,0.132 3.294,0.393c0.936,0.25 1.703,0.655 2.302,1.216c0.6,0.55 1.067,1.254 1.366,2.115s0.45,1.903 0.45,3.125l0,14.073l-2.45,0l-0.693,-2.842zm-5.558,0.467c0.76,0 1.466,-0.12 2.115,-0.356s1.2,-0.593 1.684,-1.067c0.474,-0.487 0.842,-1.092 1.104,-1.815c0.274,-0.736 0.412,-1.597 0.412,-2.583l0,-1.853l-2.676,0.132c-1.123,0.05 -2.065,0.175 -2.826,0.374s-1.372,0.48 -1.834,0.842a2.99,2.99 0 0 0 -0.973,1.291c-0.2,0.5 -0.3,1.067 -0.3,1.703c0,1.148 0.3,2 0.898,2.526c0.6,0.537 1.4,0.805 2.395,0.805m29.694,-4.94c0,1.2 -0.218,2.295 -0.655,3.256c-0.424,0.948 -1.036,1.753 -1.834,2.414s-1.772,1.167 -2.92,1.516c-1.148,0.337 -2.44,0.505 -3.874,0.505c-1.385,0 -2.682,-0.113 -3.892,-0.337c-1.198,-0.213 -2.202,-0.53 -3.013,-0.955l0,-3.33l1.44,0.6l1.722,0.505l1.853,0.374a13.97,13.97 0 0 0 1.9,0.132c1.996,0 3.468,-0.374 4.416,-1.123c0.96,-0.75 1.44,-1.822 1.44,-3.22c0,-0.674 -0.094,-1.26 -0.28,-1.76c-0.175,-0.5 -0.493,-0.954 -0.954,-1.366c-0.45,-0.424 -1.054,-0.83 -1.815,-1.216c-0.76,-0.4 -1.722,-0.83 -2.882,-1.3c-1.1,-0.437 -2.077,-0.9 -2.9,-1.422c-0.8,-0.524 -1.485,-1.1 -2.02,-1.76a6.76,6.76 0 0 1 -1.18,-2.208c-0.25,-0.823 -0.374,-1.76 -0.374,-2.807c0,-1.098 0.2,-2.077 0.6,-2.938s0.96,-1.585 1.684,-2.17c0.724,-0.6 1.584,-1.054 2.582,-1.366s2.12,-0.468 3.33,-0.468c1.485,0 2.82,0.143 4.005,0.43c1.185,0.274 2.24,0.63 3.163,1.067l-1.254,2.92c-0.8,-0.362 -1.734,-0.674 -2.77,-0.936a12.24,12.24 0 0 0 -3.18,-0.412c-1.522,0 -2.7,0.356 -3.537,1.067c-0.836,0.7 -1.254,1.647 -1.254,2.844c0,0.7 0.094,1.33 0.28,1.853c0.187,0.512 0.5,0.98 0.936,1.404c0.437,0.412 1,0.805 1.722,1.18a31.19,31.19 0 0 0 2.657,1.16c1.135,0.45 2.127,0.9 2.975,1.385c0.86,0.474 1.578,1 2.152,1.6a5.89,5.89 0 0 1 1.291,2.077c0.3,0.786 0.458,1.75 0.458,2.824m12.663,7.652c-1.26,0 -2.44,-0.194 -3.537,-0.58a7.42,7.42 0 0 1 -2.863,-1.871c-0.8,-0.86 -1.447,-1.952 -1.9,-3.275c-0.462,-1.335 -0.692,-2.938 -0.692,-4.8c0,-1.96 0.237,-3.618 0.7,-4.978c0.474,-1.372 1.123,-2.483 1.946,-3.33c0.836,-0.86 1.8,-1.485 2.92,-1.87s2.302,-0.58 3.574,-0.58a12.69,12.69 0 0 1 2.844,0.318c0.936,0.213 1.715,0.474 2.34,0.786l-1,2.882a10.06,10.06 0 0 0 -0.954,-0.356a9.21,9.21 0 0 0 -1.085,-0.318a9.1,9.1 0 0 0 -1.104,-0.225c-0.362,-0.062 -0.705,-0.094 -1.03,-0.094c-1.96,0 -3.387,0.63 -4.285,1.9c-0.898,1.247 -1.347,3.194 -1.347,5.838c0,2.633 0.45,4.56 1.347,5.783c0.9,1.2 2.3,1.815 4.136,1.815c1,0 1.92,-0.113 2.732,-0.337c0.823,-0.237 1.572,-0.5 2.246,-0.823l0,3.032a9.08,9.08 0 0 1 -2.171,0.823c-0.76,0.187 -1.747,0.28 -2.857,0.28m18.597,-21.296l1.216,0.055a8.67,8.67 0 0 1 1.16,0.132l-0.45,3.144l-1.085,-0.15c-0.362,-0.05 -0.705,-0.075 -1.03,-0.075c-0.786,0 -1.503,0.162 -2.152,0.487c-0.65,0.312 -1.2,0.767 -1.684,1.366c-0.462,0.586 -0.823,1.298 -1.085,2.133c-0.25,0.823 -0.374,1.74 -0.374,2.75l0,11.078l-3.406,0l0,-20.543l2.77,0l0.412,3.76l0.15,0l0.992,-1.553a7.06,7.06 0 0 1 1.198,-1.3a5.43,5.43 0 0 1 1.497,-0.917c0.55,-0.237 1.23,-0.356 1.93,-0.356" fill="#ffffff" stroke="#fff"/>
   <path id="svg_4" stroke-linecap="square" d="m160.82,37.644l-3.407,0l0,-20.548l3.406,0l0,20.548m-3.106,-27.744c0.387,-0.337 0.86,-0.505 1.422,-0.505c0.274,0 0.53,0.043 0.767,0.132a1.49,1.49 0 0 1 0.636,0.374c0.187,0.175 0.33,0.4 0.43,0.674c0.112,0.262 0.168,0.58 0.168,0.954c0,0.724 -0.2,1.266 -0.6,1.628c-0.387,0.35 -0.855,0.524 -1.404,0.524c-0.56,0 -1.05,-0.263 -1.437,-0.612c-0.374,-0.35 -0.55,-0.892 -0.55,-1.585c0.002,-0.705 0.19,-1.247 0.564,-1.584l0.004,0z" fill="#ffffff" stroke="#fff"/>
   <path id="svg_5" d="m176.439,38.018c-0.736,0 -1.404,-0.08 -2.002,-0.243s-1.142,-0.374 -1.628,-0.636c-0.474,-0.274 -0.898,-0.593 -1.273,-0.955a9.24,9.24 0 0 1 -0.973,-1.141l-0.225,0l0.112,1.216l0.075,1l0.037,0.805l0,8.777l-3.406,0l0,-29.745l2.77,0l0.487,2.77l0.15,0a8.32,8.32 0 0 1 0.973,-1.216a5.43,5.43 0 0 1 1.254,-0.992c0.487,-0.287 1.03,-0.512 1.628,-0.674c0.6,-0.175 1.273,-0.262 2.02,-0.262c1.173,0 2.24,0.225 3.2,0.674a6.46,6.46 0 0 1 2.451,2.021c0.686,0.886 1.216,2 1.6,3.312s0.56,2.857 0.56,4.604c0,1.76 -0.187,3.306 -0.56,4.64c-0.374,1.322 -0.905,2.433 -1.6,3.33c-0.674,0.898 -1.5,1.578 -2.45,2.04c-0.96,0.45 -2.264,0.674 -3.436,0.674m-0.42,-18.47c-0.948,0 -1.753,0.143 -2.414,0.43a3.78,3.78 0 0 0 -1.591,1.31c-0.4,0.586 -0.7,1.316 -0.898,2.2c-0.187,0.873 -0.293,1.902 -0.318,3.088l0,0.767c0,1.26 0.08,2.383 0.243,3.368c0.175,0.973 0.462,1.797 0.86,2.47a4.13,4.13 0 0 0 1.628,1.516c0.674,0.337 1.516,0.505 2.526,0.505c1.684,0 2.92,-0.68 3.705,-2.04c0.798,-1.36 1.198,-3.312 1.198,-5.857c0,-2.595 -0.4,-4.535 -1.198,-5.82c-0.786,-1.285 -2.034,-1.927 -3.743,-1.927m19.832,15.673c0.225,0 0.474,-0.02 0.75,-0.038l0.823,-0.094l0.7,-0.132l0.505,-0.132l0,2.583c-0.162,0.075 -0.368,0.15 -0.618,0.225s-0.524,0.136 -0.823,0.187a7.59,7.59 0 0 1 -0.936,0.132a8.12,8.12 0 0 1 -0.954,0.055a7.42,7.42 0 0 1 -2.152,-0.3a4.06,4.06 0 0 1 -1.722,-1.029c-0.474,-0.487 -0.848,-1.14 -1.123,-1.965c-0.274,-0.836 -0.412,-1.884 -0.412,-3.144l0,-11.92l-2.9,0l0,-1.516l2.9,-1.46l1.46,-4.304l1.965,0l0,4.716l5.165,0l0,2.564l-5.165,0l0,11.92c0,1.2 0.193,2.12 0.58,2.732c0.4,0.6 1.048,0.917 1.946,0.917" fill="#ffffff" stroke="#fff"/>
  </g>
 </g>

</svg>