<?xml version="1.0" standalone="no"?>
<svg xmlns:xlink="http://www.w3.org/1999/xlink" xmlns="http://www.w3.org/2000/svg" viewBox="0 0 413 82" enable-background="new 0 0 413 82"><style type="text/css">.st0{fill:#0066FF;} .st1{enable-background:new ;} .st2{fill:#FFFFFF;} .st3{fill:#6C6E74;}</style><g id="logo"><path class="st0" d="M23.4 6.9c47.7 0 180.5.1 207.7 0s59.6 68.1 13.2 68.1c-46.3 0-176.6-.5-202.9 0s-65.7-68.1-18-68.1z" id="bg"/><g id="logo_x5F_text"><g class="st1"><path class="st2" d="M49.3 43.7c0 7.1 1.3 10 9.1 10h.5c3.2 0 6-.5 8.8-1.3 1.1-.3 3.1 5 3.1 5.9 0 2.5-8.9 3.5-11.9 3.5h-.5c-12.3 0-18.3-4.1-18.3-16.6v-11.3c0-12.5 6-16.6 18.3-16.6h.5c3.1 0 11.9 1 11.9 3.5 0 .9-2 6.2-3.1 5.9-2.8-.8-5.6-1.4-8.8-1.4h-.5c-7.8 0-9.1 2.9-9.1 10v8.4zM104.4 18.9c0-1.3 5.2-1.7 6.8-1.7 1.1 0 2.2.9 2.2 1.9v26c0 12.5-5.9 16.6-18.4 16.6h-.5c-12.3 0-18.3-4.1-18.3-16.6v-26.2c0-1.3 5.2-1.7 6.8-1.7 1.1 0 2.2.9 2.2 1.9v24.6c0 7 1.6 10 9.3 10h.5c7.8 0 9.4-3 9.4-10v-24.8zM129.7 59.9c0 1-1.1 1.9-2.2 1.9-1.6 0-6.8-.4-6.8-1.6v-40.7c0-.9 1-1.6 2.2-1.6h25.1c1 0 1.6 1.1 1.6 2.1 0 1.5-.2 5.9-1.4 5.9h-18.4v9.2h14.9c.8 0 1.5 1.1 1.5 2.1 0 1.5-.1 5.9-1.3 5.9h-15.1v16.8zM171.4 61.7c-12.3 0-18.3-4.1-18.3-16.6v-11.2c0-12.5 6-16.6 18.3-16.6h.5c12.4 0 18.4 4.1 18.4 16.6v11.1c0 12.5-6 16.6-18.4 16.6h-.5zm-9-17.1c0 7 1.3 9.1 9.1 9.1h.5c7.7 0 9.1-2 9.1-9.1v-10.3c0-7-1.4-9.1-9.1-9.1h-.5c-7.7 0-9.1 2-9.1 9.1v10.3zM231.7 61.7c-1.6 0-5.9-.2-6.8-1.4l-19.1-27.2v26.7c0 1-1.1 1.9-2.2 1.9-1.5 0-6.7-.4-6.7-1.7v-41.6c0-1.2 5-1.3 6.6-1.3 1 0 1.8.9 2.3 1.6l19.1 27.2v-27.6c0-1.2 5.5-1.3 7.1-1.3 1.1 0 1.9.8 1.9 1.8v41.2c0 1.1-1.2 1.7-2.2 1.7z"/></g><g class="st1"><path class="st3" d="M285.6 60c0 .9-.5 1.7-1.4 1.7-1.3 0-4-.4-4-1.1v-41.5c0-.9.6-1.3 2-1.3h22.7c.7 0 1.4.5 1.4 1.3 0 1.2-.3 3.5-1 3.5h-19.7v14h16.6c.7 0 1.4.5 1.4 1.4 0 1.2-.4 3.4-1 3.4h-17v18.6zM308.8 40c0-8.5 3.5-11.3 11.9-11.3h.2c8.4 0 11.9 2.9 11.9 11.3v10.6c0 8.5-3.5 11.3-11.9 11.3h-.2c-8.4 0-11.9-2.9-11.9-11.3v-10.6zm12.2 17.4c5.8 0 6.8-2.5 6.8-7.9v-8.5c0-5.5-1.1-8-6.8-8h-.3c-5.8 0-6.8 2.5-6.8 8v8.5c0 5.4 1.1 7.9 6.8 7.9h.3zM358.7 41.1c0-3.8-.1-7.9-3.8-7.9-4.9 0-10 1.7-10 2.6v24.4c0 .8-.6 1.4-1.4 1.4-1.3 0-3.7-.2-3.7-1v-27c0-2.2 7-5.1 16-5.1 7.3 0 7.9 5.8 7.9 11v20.6c0 .8-.6 1.4-1.4 1.4-1.2 0-3.6-.2-3.6-1v-19.4zM378.5 33.9v19.3c0 2.2.7 3.8 3 3.8.9 0 1.8-.4 3.5-.9.6-.2 1.3 1.8 1.6 2.8.2.7-.2 1.3-.9 1.6-2 .8-3.1 1.3-5.6 1.3-3.5 0-6.6-1.9-6.6-7.8v-20h-4.2c-.7 0-1.1-.6-1.1-1.2 0-1.1.2-3.5 1.3-3.5h4v-8.3c0-.7 2.5-1 3.7-1 .8 0 1.4.6 1.4 1.4v7.9h6.6c.7 0 1.1.5 1.1 1.2 0 1.1-.2 3.5-1.3 3.5h-6.5zM399.6 57.3c3.1 0 6.8-.6 6.8-4 0-6.1-15.5-7.6-15.5-16.4 0-7.1 5.7-8.2 11.2-8.2 2.7 0 5 .3 7.3 1 .8.2 1.3.8 1.2 1.5-.2 1.1-.9 3.2-1.6 3.1-2.3-.6-4.6-1.1-6.9-1.1-3.4 0-6.1.8-6.1 3.7 0 5 15.5 6.5 15.5 16.5 0 6.8-5.6 8.5-11.7 8.5-2.8 0-6.7-.6-9.1-1.3-.8-.3-1.2-.8-1-1.6.2-1.1.9-3.1 1.6-2.9 2.5.5 5.3 1.2 8.3 1.2z"/></g></g></g></svg>