<svg width="503.607" height="503.607" xmlns="http://www.w3.org/2000/svg">
 <g>
  <title>background</title>
  <rect fill="none" id="canvas_background" height="505.607" width="505.607" y="-1" x="-1"/>
 </g>

 <g>
  <title>Layer 1</title>
  <path fill="#ffffff" id="svg_4" d="m109.115,470.033l285.377,0c4.642,0 8.393,-3.76 8.393,-8.393s-3.752,-8.393 -8.393,-8.393l-285.377,0c-4.642,0 -8.393,3.76 -8.393,8.393s3.751,8.393 8.393,8.393z"/>
  <path fill="#b4b4b4" id="svg_5" d="m360.918,201.443l-218.229,0l0,117.508l218.229,0l0,-117.508zm-151.082,33.573l83.934,0c4.642,0 8.393,3.76 8.393,8.393s-3.752,8.393 -8.393,8.393l-83.934,0c-4.642,0 -8.393,-3.76 -8.393,-8.393s3.752,-8.393 8.393,-8.393zm109.115,50.361l-134.295,0c-4.642,0 -8.393,-3.76 -8.393,-8.393c0,-4.633 3.752,-8.393 8.393,-8.393l134.295,0c4.642,0 8.393,3.76 8.393,8.393c0,4.633 -3.752,8.393 -8.393,8.393z"/>
  <path fill="#b4b4b4" id="svg_6" d="m176.262,85.27463c1.771,0 3.542,0.562 5.036,1.679l20.144,15.108l0,-100.721l-50.361,0l0,100.721l20.144,-15.108c1.495,-1.116 3.266,-1.679 5.037,-1.679z"/>
  <path fill="#41557d" id="svg_7" d="m436.459,0l-218.23,0l0,117.508c0,3.181 -1.796,6.085 -4.642,7.512c-1.183,0.588 -2.476,0.881 -3.752,0.881c-1.779,0 -3.559,-0.571 -5.036,-1.679l-28.538,-21.403l-28.538,21.403c-2.535,1.905 -5.934,2.216 -8.788,0.797c-2.845,-1.427 -4.642,-4.331 -4.642,-7.512l0,-117.507l-33.574,0c-23.138,0 -41.965,18.827 -41.965,41.967l0,419.672c0,23.141 18.826,41.967 41.967,41.967l335.738,0c4.642,0 8.393,-3.76 8.393,-8.393l0,-67.148l0,-419.672c0,-4.633 -3.751,-8.393 -8.393,-8.393zm-310.557,193.049c0,-4.633 3.752,-8.393 8.393,-8.393l235.016,0c4.642,0 8.393,3.76 8.393,8.393l0,134.295c0,4.633 -3.752,8.393 -8.393,8.393l-235.016,0c-4.642,0 -8.393,-3.76 -8.393,-8.393l0,-134.295zm302.164,293.771l-327.345,0c-13.883,0 -25.18,-11.298 -25.18,-25.18s11.298,-25.18 25.18,-25.18l327.344,0l0,50.36l0.001,0z"/>
 </g>
</svg>