<svg width="106" height="44.99999999999999" xmlns="http://www.w3.org/2000/svg">

 <metadata id="metadata3481">image/svg+xml</metadata>
 <g>
  <title>background</title>
  <rect fill="none" id="canvas_background" height="47" width="108" y="-1" x="-1"/>
 </g>
 <g>
  <title>Layer 1</title>
  <path fill="#ffffff" stroke-width="0.314311" d="m46.690716,11.207892l17.28712,0l0,7.22917l-10.05796,0l0,7.22916l10.05796,0l0,7.22916l-17.28712,0l0,-21.68749z" id="path2999"/>
  <path fill="#ffffff" stroke-width="0.314311" d="m67.435256,11.207892l17.28713,0l0,6.28624l-10.05796,0l0,1.25723l10.05796,0l0,14.45833l-17.28713,0l0,-6.60054l10.05796,0l0,-1.25724l-10.05796,0l0,-14.14402z" id="path3001"/>
  <path fill="#ffffff" stroke-width="0.314311" d="m88.179816,11.207892l17.28711,0l0,6.28624l-10.05796,0l0,1.25723l10.05796,0l0,14.45833l-17.28711,0l0,-6.60054l10.05797,0l0,-1.25724l-10.05797,0l0,-14.14402z" id="path3003"/>
  <polygon fill="#264de4" points="35.537025451660156,39.966392517089844 19.765779495239258,44.338706970214844 4.0379509925842285,39.97254943847656 0.5330771803855896,0.6612930297851562 39.04561996459961,0.6612930297851562 " id="polygon2989"/>
  <polygon fill="#2965f1" points="19.78935432434082,40.9966926574707 32.53328323364258,37.46360397338867 35.531612396240234,3.875568389892578 19.78935432434082,3.875568389892578 " id="polygon2991"/>
  <polygon fill="#ebebeb" points="19.78935432434082,18.45553207397461 8.567928314208984,18.45553207397461 9.00006103515625,23.276851654052734 19.78935432434082,23.276851654052734 " id="polygon2993"/>
  <polygon fill="#ebebeb" points="19.772686004638672,8.696945190429688 7.699649810791016,8.696945190429688 8.137935638427734,13.518379211425781 19.78935432434082,13.518379211425781 19.78935432434082,8.696945190429688 " id="polygon2995"/>
  <polygon fill="#ebebeb" points="19.768217086791992,30.98279571533203 14.398630142211914,29.53287124633789 14.055379867553711,25.6876220703125 11.446173667907715,25.6876220703125 9.215476989746094,25.6876220703125 9.89095687866211,33.25784683227539 19.767166137695312,35.99958038330078 19.78935432434082,35.993404388427734 19.78935432434082,30.97713851928711 " id="polygon2997"/>
  <polygon fill="#ffffff" points="26.56647491455078,13.518379211425781 26.12777328491211,18.45553207397461 19.772686004638672,18.45553207397461 19.772686004638672,23.276851654052734 25.70966339111328,23.276851654052734 25.150028228759766,29.52981185913086 19.772686004638672,30.98119354248047 19.772686004638672,35.99723815917969 29.656753540039062,33.25784683227539 29.729267120361328,32.443302154541016 30.862228393554688,19.750232696533203 30.979873657226562,18.45553207397461 31.850276947021484,8.696945190429688 19.772686004638672,8.696945190429688 19.772686004638672,13.518379211425781 " id="polygon3005"/>
 </g>
</svg>