<svg width="102" height="49" xmlns="http://www.w3.org/2000/svg">

 <g>
  <title>Layer 1</title>
  <g id="svg_4">
   <path id="svg_1" fill="#4e7896" d="m12.5469,37.06183s-1.767,1.075 1.23,1.383c3.6,0.46 5.53,0.384 9.524,-0.384c0,0 1.075,0.69 2.535,1.23c-8.987,3.84 -20.354,-0.23 -13.288,-2.227l-0.001,-0.002zm-1.152,-4.992s-1.92,1.46 1.075,1.767c3.917,0.384 7,0.46 12.29,-0.614c0,0 0.69,0.768 1.843,1.152c-10.83,3.226 -22.966,0.307 -15.208,-2.304l0,-0.001zm21.2,8.756s1.306,1.075 -1.46,1.92c-5.146,1.536 -21.583,1.997 -26.192,0c-1.613,-0.69 1.46,-1.7 2.458,-1.843c1,-0.23 1.536,-0.23 1.536,-0.23c-1.766,-1.23 -11.752,2.535 -5.07,3.6c18.357,2.995 33.488,-1.306 28.726,-3.456l0.002,0.009zm-19.204,-13.979s-8.372,1.997 -2.996,2.688c2.304,0.307 6.836,0.23 11.06,-0.077c3.456,-0.307 6.913,-0.922 6.913,-0.922s-1.23,0.538 -2.074,1.075c-8.526,2.227 -24.886,1.23 -20.2,-1.075c3.994,-1.92 7.297,-1.7 7.297,-1.7l0,0.011zm14.978,8.372c8.602,-4.455 4.608,-8.756 1.843,-8.218c-0.69,0.154 -1,0.307 -1,0.307s0.23,-0.46 0.768,-0.614c5.453,-1.92 9.755,5.76 -1.767,8.756c0,0 0.077,-0.077 0.154,-0.23l0.002,-0.001zm-14.132,12.135c8.295,0.538 20.97,-0.307 21.276,-4.224c0,0 -0.614,1.536 -6.836,2.688c-7.066,1.306 -15.822,1.152 -20.97,0.307c0,0 1.075,0.922 6.53,1.23l0,-0.001z"/>
   <path id="svg_2" fill="#f58219" d="m23.1459,1.49983s4.762,4.84 -4.532,12.136c-7.45,5.914 -1.7,9.294 0,13.134c-4.378,-3.917 -7.527,-7.373 -5.377,-10.6c3.15,-4.762 11.828,-7.066 9.908,-14.67l0.001,0zm-2.458,22.044c2.227,2.535 -0.615,4.84 -0.615,4.84s5.684,-2.92 3.072,-6.53c-2.38,-3.456 -4.224,-5.146 5.76,-10.907c0,0 -15.746,3.917 -8.218,12.596l0.001,0.001z"/>
   <path id="svg_3" fill="#4e7896" d="m69.9089,32.66183l0,-11.677c0,-2.98 -1.668,-5.004 -5.838,-5.004c-2.383,0 -4.41,0.596 -6.196,1.31l0.596,2.145c1.31,-0.477 2.98,-0.953 4.766,-0.953c2.264,0 3.336,0.953 3.336,2.86l0,1.55l-1.182,0c-5.72,0 -8.34,2.145 -8.34,5.6c0,2.86 1.787,4.528 5.004,4.528c2.026,0 3.575,-0.953 5.004,-2.145l0.238,1.787l2.62,0l-0.008,-0.001zm-3.338,-3.812c-1.19,1.072 -2.502,1.668 -3.694,1.668c-1.55,0 -2.502,-0.953 -2.502,-2.62s0.953,-2.86 4.766,-2.86l1.43,0l0,3.813l0,-0.001zm14.536,3.813l-4.17,0l-5.003,-16.323l3.575,0l3.098,10.01l0.715,2.98c1.55,-4.29 2.74,-8.698 3.217,-12.987l3.574,0c-0.953,5.362 -2.62,11.2 -5.004,16.323l-0.002,-0.003zm19.302,0l0,-11.678c0,-2.98 -1.668,-5.004 -5.84,-5.004c-2.383,0 -4.408,0.596 -6.196,1.31l0.477,2.145c1.43,-0.477 3.098,-0.953 4.885,-0.953c2.264,0 3.336,0.953 3.336,2.86l0,1.55l-1.19,0c-5.72,0 -8.34,2.145 -8.34,5.6c0,2.86 1.668,4.528 4.885,4.528c2.145,0 3.694,-0.953 5.123,-2.145l0.238,1.787l2.62,0l0.002,0zm-3.336,-3.813c-1.19,1.072 -2.502,1.668 -3.694,1.668c-1.55,0 -2.502,-0.953 -2.502,-2.62s0.953,-2.86 4.766,-2.86l1.43,0l0,3.813l0,-0.001zm-43.728,6.553c-0.953,1.43 -2.383,2.502 -4.17,3.098l-1.55,-1.906c1.192,-0.715 2.383,-1.787 2.86,-2.74c0.477,-0.834 0.596,-2.026 0.596,-4.766l0,-18.589l3.575,0l0,18.35c0,3.694 -0.358,5.123 -1.31,6.553l-0.001,0z"/>
  </g>
 </g>
</svg>