<svg width="118" height="28" xmlns="http://www.w3.org/2000/svg">

 <g>
  <title>Layer 1</title>
  <g id="svg_1" fill="#131b28">
   <path fill="#ffffff" id="svg_2" d="m50.65431,11.1545l-0.738,2.614l0.738,-2.615l0,0.001zm3.796,5.678l-0.813,-0.005l0.813,0.005zm-0.2,3.906l-4.872,0.018l4.872,-0.018zm1.02,-3.9l-0.814,-0.005l0.814,0.005zm-0.592,3.57l0.85,-3.237l-0.85,3.237zm17.94,-14.9l-1.58,7.433l1.58,-7.433zm-4.064,-0.01l-1.2,5.553l1.2,-5.553z"/>
   <path fill="#ffffff" id="svg_3" d="m72.33631,5.1655l-3.38,0c-0.188,0 -0.374,0.15 -0.414,0.334l-2.4,11.107c-0.04,0.183 -0.226,0.333 -0.413,0.333l-2.393,0c-2.368,0 -2.094,-1.637 -1.6,-3.88l0.015,-0.068l0.287,-1.53l0.124,-0.63l1.092,-5.332c0.038,-0.184 -0.085,-0.335 -0.273,-0.335l-3.47,0a0.44,0.44 0 0 0 -0.412,0.334l-1.583,7.414c-0.86,3.924 -0.632,7.666 4.04,7.783l7.467,0c0.188,0 0.373,-0.15 0.413,-0.334l3.162,-14.866c0.04,-0.184 -0.083,-0.334 -0.27,-0.334l0.008,0.004zm13.48,11.813c0.188,0 0.3,0.15 0.273,0.334l-0.328,1.605m-0.32,1.605l0.328,-1.606l-0.328,1.606zm-0.4,0.338l-6.23,0.03l6.23,-0.03z"/>
   <path fill="#ffffff" id="svg_4" d="m76.78331,14.9115c-0.003,-0.176 0.197,-0.478 0.385,-0.478l-0.422,-0.007c-0.2,1.914 0.037,0.485 0.037,0.485zm2.325,5.977l-0.065,0l0.065,0zm6.708,-3.9c0.188,0 0.3,0.15 0.273,0.334l-0.373,1.856m-5.008,1.707l-0.014,0l0.014,0zm-0.83,0.003l-0.048,0l0.048,0zm-0.252,0l-0.08,0l0.08,0zm-0.258,0l-0.07,0l0.07,0zm0.462,0l-0.205,0l0.205,0z"/>
   <path fill="#ffffff" id="svg_5" d="m80.69631,20.8855l-0.816,0.003l0.816,-0.003zm4.337,-0.027l-4.325,0.026l4.325,-0.026zm0.4,-0.335l0.275,-1.344l-0.275,1.345l0,-0.001zm-5.896,0.365l-0.178,0l0.178,0zm-0.505,0.002l-0.24,0l0.24,0zm0.254,-0.002l-0.2,0l0.2,0zm-49.458,-5.937l0.525,-2.328l-0.6,2.66l-0.07,0.334l0.146,-0.668l-0.001,0.002zm6.288,-9.825l-3.713,0a0.45,0.45 0 0 0 -0.417,0.333l-0.704,3.1a0.26,0.26 0 0 0 0.266,0.333l3.742,0c0.188,0 0.374,-0.15 0.414,-0.333l0.68,-3.107c0.04,-0.183 -0.08,-0.333 -0.27,-0.333l0.002,0.007zm-0.8,5.17l-1.1,5.038l1.1,-5.038zm-10.786,16.692l3.062,0.024c-0.904,0 -2.397,-0.017 -3.063,-0.025l0.001,0.001z"/>
   <path fill="#ffffff" id="svg_6" d="m30.88931,10.2955l-0.526,2.328l0.526,-2.328zm4.16,-0.334l-3.733,0a0.45,0.45 0 0 0 -0.417,0.333l-1.05,4.656l-0.146,0.668l-1,4.753a7.16,7.16 0 0 1 -0.18,0.657s-0.7,2.08 -1.874,2.057l-1.165,-0.022a0.45,0.45 0 0 0 -0.42,0.326l-0.776,3.262a0.26,0.26 0 0 0 0.261,0.336l3.063,0.025c2.936,0 4.483,-1.627 5.476,-6.307l2.25,-10.4c0.04,-0.183 -0.082,-0.333 -0.27,-0.333l-0.019,-0.011zm53.16,10.737c-0.188,0 -0.3,-0.15 -0.27,-0.334l2.817,-13.186m1.366,13.186l1.14,-5.628l-1.14,5.628z"/>
   <path fill="#ffffff" id="svg_7" d="m87.98131,20.5325c-0.023,-0.092 -0.01,-0.317 0.03,-0.5l1.336,-6.26l-1.408,6.593c-0.04,0.184 0.082,0.334 0.27,0.334l0.342,0c-0.188,0 -0.548,-0.075 -0.57,-0.167zm3.92,0.092c-0.102,0.04 -0.34,0.075 -0.528,0.075l0.342,0a0.44,0.44 0 0 0 0.41,-0.335l0.068,-0.334c-0.037,0.184 -0.2,0.553 -0.3,0.594l0.008,0zm0.792,-3.074l0.503,-2.484l-0.503,2.484zm11.108,-9.488l0.155,0.64c0.043,0.183 -0.076,0.332 -0.263,0.333"/>
   <path fill="#ffffff" id="svg_8" d="m92.19131,20.0305l0.5,-2.48l-0.5,2.48zm11.455,-12.625l0.153,0.656l-0.153,-0.656zm-10.45,7.663l0.138,-0.664l0.537,-2.515l-0.608,2.848l-0.067,0.33l0,0.001zm-2.395,-8.106l-0.117,0.55l-1.336,6.26l1.408,-6.593l0.045,-0.216l0,-0.001z"/>
   <path fill="#ffffff" id="svg_9" d="m103.95631,8.7025l-0.155,-0.64l-0.23,-1c-0.304,-1.18 -1.196,-1.863 -3.134,-1.863l-8.92,-0.006a0.44,0.44 0 0 0 -0.412,0.334l-0.138,0.653l-0.2,0.987l-2.744,12.853c-0.04,0.184 -0.053,0.4 -0.03,0.5s0.383,0.167 0.57,0.167l2.82,0c0.188,0 0.425,-0.034 0.528,-0.075s0.254,-0.4 0.3,-0.594l1.07,-5.294l1.145,-5.364c0.04,-0.183 0.225,-0.332 0.412,-0.333l8.873,-0.004c0.187,0 0.306,-0.15 0.263,-0.333l-0.018,0.012zm11.422,-5.794l-0.683,0.003l-2.84,0a0.73,0.73 0 0 0 -0.534,0.282l-6.28,9.2c-0.106,0.155 -0.227,0.132 -0.27,-0.05l-0.462,-2.027a0.45,0.45 0 0 0 -0.417,-0.333l-4.037,0c-0.188,0 -0.3,0.147 -0.248,0.328l1.8,6.338c0.052,0.18 0.055,0.477 0.01,0.66l-0.8,3.067a0.25,0.25 0 0 0 0.257,0.331l4,0c0.188,0 0.38,-0.15 0.426,-0.33l0.8,-3.067a2.04,2.04 0 0 1 0.29,-0.604l10.196,-13.532c0.113,-0.15 0.052,-0.272 -0.136,-0.27l-1.07,0.007l-0.002,-0.003zm-32.076,7.938c-0.024,0.2 -0.212,0.35 -0.4,0.35l-5.12,0c-0.177,0 -0.267,-0.12 -0.24,-0.27l0.004,-0.027l0.023,-0.087c0.5,-1.3 1.485,-2.153 3.356,-2.153c2.107,0 2.518,1.03 2.375,2.187l0.002,0zm-1.5,-5.908c-6.57,0 -8.127,3.988 -9,8.013c-0.874,4.103 -0.798,7.94 6,7.94l1.078,0l0.83,-0.003l4.326,-0.026a0.44,0.44 0 0 0 0.407,-0.335l0.657,-3.212c0.038,-0.184 -0.085,-0.334 -0.273,-0.334l-6.111,0c-2.43,0 -3.153,-0.646 -2.887,-2.545l9.77,0c0.16,-0.003 0.305,-0.1 0.362,-0.252c0.01,-0.027 0.02,-0.056 0.024,-0.085c1.45,-5.47 1.034,-9.157 -5.18,-9.157l-0.003,-0.004zm-31.056,5.887l-0.092,0.327c0,0.001 -0.738,2.616 -0.738,2.616l-0.738,2.614a0.48,0.48 0 0 1 -0.434,0.328l-3.905,0c-2.962,0 -3.683,-2.317 -2.962,-5.734c0.72,-3.495 2.135,-5.668 5.05,-5.888c3.984,-0.3 4.78,2.502 3.82,5.736l-0.001,0.001zm2.678,5.685s1.84,-4.47 2.26,-7.053c0.57,-3.457 -1.16,-8.47 -7.845,-8.47c-6.647,0 -9.533,4.786 -10.634,10c-1.1,5.24 0.342,9.836 6.95,9.8l10.086,-0.037a0.47,0.47 0 0 0 0.427,-0.332l0.85,-3.238a0.25,0.25 0 0 0 -0.255,-0.332l-1.627,0c-0.16,-0.001 -0.25,-0.104 -0.232,-0.24c0.003,-0.025 0.01,-0.05 0.02,-0.076l0,-0.022z"/>
   <path fill="#ffffff" id="svg_10" d="m86.32631,13.5185c0,0.124 -0.1,0.224 -0.224,0.224s-0.224,-0.1 -0.224,-0.224s0.1,-0.224 0.224,-0.224s0.224,0.1 0.224,0.224z"/>
  </g>
  <path id="svg_11" fill="#0868ac" d="m2.67331,7.7055c-1.835,2.638 -1.607,6.07 -0.205,8.872l0.103,0.2l0.066,0.126l0.04,0.073l0.073,0.13l0.134,0.23l0.076,0.126l0.155,0.243l0.066,0.102l0.225,0.325l0.044,0.06l0.205,0.273l0.077,0.098l0.2,0.233l0.072,0.087l0.264,0.302l0.016,0.017l0.268,0.283l0.086,0.087l0.214,0.2l0.088,0.083l0.293,0.267l0.056,0.047l0.267,0.225l0.1,0.088l0.222,0.174l0.12,0.1l0.25,0.18l0.116,0.082l0.242,0.16l0.105,0.07l0.38,0.232l0.105,0.06l0.285,0.16l0.158,0.08l0.204,0.106l0.047,0.023l0.083,0.04l0.323,0.15l0.068,0.03l0.377,0.156l0.092,0.036l0.355,0.132l0.045,0.016l0.396,0.13l0.096,0.028l0.4,0.116c8.875,1.62 11.453,-5.334 11.453,-5.334c-2.165,2.82 -6,3.565 -9.65,2.737c-0.138,-0.03 -0.272,-0.074 -0.406,-0.114l-0.1,-0.03a12.68,12.68 0 0 1 -0.39,-0.127l-0.054,-0.02c-0.116,-0.04 -0.23,-0.084 -0.345,-0.128l-0.097,-0.038a11.08,11.08 0 0 1 -0.373,-0.155l-0.074,-0.033l-0.314,-0.146l-0.1,-0.044c-0.082,-0.04 -0.162,-0.082 -0.243,-0.124l-0.162,-0.085a9.39,9.39 0 0 1 -0.291,-0.163l-0.098,-0.055a14.83,14.83 0 0 1 -0.38,-0.232c-0.035,-0.022 -0.068,-0.046 -0.102,-0.068l-0.27,-0.18c-0.03,-0.02 -0.058,-0.04 -0.087,-0.06l-0.255,-0.185l-0.113,-0.085l-0.23,-0.18l-0.103,-0.082l-0.287,-0.242c-0.01,-0.01 -0.02,-0.017 -0.03,-0.026c-0.102,-0.1 -0.202,-0.182 -0.302,-0.274l-0.085,-0.082l-0.217,-0.212l-0.085,-0.085a11.4,11.4 0 0 1 -0.266,-0.281a12.7,12.7 0 0 1 -0.283,-0.32l-0.07,-0.084l-0.194,-0.24l-0.07,-0.1l-0.224,-0.298c-2.012,-2.752 -2.739,-6.556 -1.112,-9.68m4.263,-0.405c-1.327,1.9 -1.255,4.467 -0.22,6.486a8.45,8.45 0 0 0 0.587,0.98c0.2,0.285 0.42,0.624 0.683,0.853l0.298,0.3l0.078,0.077l0.304,0.283l0.015,0.013l0.355,0.294l0.08,0.063l0.372,0.27l0.26,0.173l0.275,0.17l0.04,0.023l0.244,0.136l0.087,0.045l0.17,0.088l0.026,0.012l0.355,0.166l0.078,0.032l0.3,0.118l0.125,0.046l0.267,0.093l0.12,0.04c0.128,0.04 0.254,0.1 0.387,0.112c6.853,1.135 8.435,-4.14 8.435,-4.14c-1.426,2.054 -4.188,3.034 -7.135,2.27l-0.388,-0.112l-0.117,-0.038l-0.27,-0.094l-0.123,-0.046l-0.292,-0.118l-0.08,-0.033l-0.357,-0.166l-0.18,-0.1l-0.103,-0.053l-0.28,-0.16l-0.275,-0.168l-0.26,-0.173l-0.37,-0.27l-0.083,-0.066c-1.3,-1.018 -2.313,-2.4 -2.8,-3.988c-0.5,-1.637 -0.4,-3.474 0.483,-4.965m3.69,-0.113c-0.782,1.15 -0.86,2.58 -0.316,3.853c0.572,1.35 1.746,2.4 3.115,2.9l0.17,0.06l0.075,0.024l0.244,0.07c3.784,0.73 4.8,-1.942 5.083,-2.335c-0.9,1.294 -2.4,1.605 -4.264,1.155a5.98,5.98 0 0 1 -0.45,-0.138a5.48,5.48 0 0 1 -0.533,-0.221a5.51,5.51 0 0 1 -0.934,-0.57c-1.66,-1.26 -2.7,-3.66 -1.607,-5.615"/>
 </g>
</svg>