<svg width="100.00000000000001" height="19" xmlns="http://www.w3.org/2000/svg" stroke="null" style="vector-effect: non-scaling-stroke;">

 <g stroke="null">
  <title stroke="null">Layer 1</title>
  <g stroke="null" id="svg_6">
   <g stroke="null" id="svg_1" fill-rule="evenodd" fill="#00678c">
    <path stroke="null" id="svg_2" d="m14.04289,11.75369c-0.77062,-0.01738 -1.37322,0.05794 -1.87731,0.27233c-0.14485,0.05794 -0.37662,0.05794 -0.394,0.24335c0.07532,0.07532 0.08691,0.2028 0.15644,0.30709a2.25972,2.25972 0 0 0 0.50409,0.591l0.61997,0.44615c0.37662,0.23177 0.79959,0.36503 1.17042,0.5968c0.21438,0.13327 0.42297,0.30709 0.57942,0.45194c0.10429,0.07532 0.17382,0.2028 0.30709,0.24915l0,-0.02897c-0.06953,-0.08691 -0.08691,-0.21438 -0.15644,-0.30709l-0.28971,-0.27812a4.57738,4.57738 0 0 0 -1.00239,-0.97342c-0.30709,-0.21438 -0.98501,-0.50409 -1.11248,-0.85754l-0.01738,-0.01738c0.21438,-0.01738 0.46353,-0.0985 0.66633,-0.15644c0.33027,-0.08691 0.62577,-0.06953 0.96762,-0.15644l0.46353,-0.13327l0,-0.08691c-0.17382,-0.17382 -0.3013,-0.40559 -0.48092,-0.56783c-0.4925,-0.42297 -1.03136,-0.84015 -1.59339,-1.1878c-0.3013,-0.19121 -0.68371,-0.31868 -1.00239,-0.48092c-0.11588,-0.05794 -0.30709,-0.08691 -0.37662,-0.18541c-0.17382,-0.21438 -0.27233,-0.4925 -0.394,-0.74165l-0.7938,-1.68031c-0.17382,-0.37662 -0.27812,-0.75324 -0.4925,-1.10089a9.73418,9.73418 0 0 0 -3.73723,-3.61555c-0.35924,-0.2028 -0.78221,-0.28971 -1.23416,-0.394l-0.72427,-0.04056c-0.15644,-0.06953 -0.30709,-0.24915 -0.44615,-0.33606c-0.55044,-0.34765 -1.97001,-1.10089 -2.31766,-0.10429c-0.26074,0.62577 0.38821,1.24574 0.60839,1.56442c0.16224,0.22018 0.37662,0.47512 0.4925,0.72427c0.06953,0.16224 0.08691,0.33606 0.15644,0.50989l0.50409,1.2921a4.63533,4.63533 0 0 0 0.35924,0.5968c0.07532,0.10429 0.21438,0.15644 0.24335,0.33027c-0.13327,0.19121 -0.14485,0.48092 -0.22018,0.72427c-0.34765,1.0893 -0.21438,2.44513 0.27812,3.24473c0.15644,0.24335 0.57942,0.77062 1.01398,0.56783c0.43456,-0.17382 0.33606,-0.72427 0.46353,-1.20518c0.02897,-0.11588 0.01159,-0.19121 0.06953,-0.27233l0,0.01738l0.394,0.79959c0.3013,0.47512 0.82277,0.96762 1.25733,1.2921c0.23177,0.17382 0.41718,0.47512 0.70689,0.57942l0,-0.02897l-0.04056,0c-0.05794,-0.08691 -0.14485,-0.12747 -0.22018,-0.19121a4.69327,4.69327 0 0 1 -0.50409,-0.57942a12.45744,12.45744 0 0 1 -1.08351,-1.75563c-0.15644,-0.3013 -0.28971,-0.62577 -0.41718,-0.92707c-0.05794,-0.11588 -0.05794,-0.28971 -0.15644,-0.34765c-0.14485,0.21438 -0.35924,0.394 -0.46353,0.65474c-0.18541,0.41718 -0.2028,0.92707 -0.27233,1.46013c-0.34765,-0.05794 -0.45194,-0.37662 -0.56783,-0.64895c-0.28971,-0.68371 -0.33606,-1.79619 -0.08691,-2.5784c0.06953,-0.2028 0.35924,-0.84015 0.24335,-1.03136c-0.05794,-0.18541 -0.24915,-0.28971 -0.35924,-0.43456c-0.12747,-0.18541 -0.26074,-0.41718 -0.34765,-0.61997c-0.16803,-0.54465 -0.34186,-1.14724 -0.591,-1.6861c-0.11588,-0.24915 -0.31868,-0.50409 -0.48671,-0.73586c-0.17962,-0.26653 -0.38241,-0.45194 -0.52727,-0.75324c-0.05215,-0.11588 -0.11588,-0.28971 -0.04056,-0.40559c0.01738,-0.07532 0.05794,-0.10429 0.13327,-0.12747c0.12747,-0.10429 0.48092,0.02897 0.60839,0.08691c0.35924,0.14485 0.65474,0.27812 0.95604,0.48092c0.13327,0.0985 0.27812,0.27812 0.45194,0.33027l0.2028,0c0.30709,0.06953 0.65474,0.01738 0.94445,0.10429c0.50989,0.16224 0.97342,0.40559 1.3906,0.66633a8.57535,8.57535 0 0 1 3.01296,3.30267c0.11588,0.22018 0.16224,0.42297 0.27233,0.65474l0.65474,1.41957c0.2028,0.45194 0.394,0.91548 0.68371,1.2921c0.14485,0.2028 0.72427,0.30709 0.98501,0.41718c0.19121,0.08691 0.4925,0.16224 0.66633,0.27233l0.96762,0.65474c0.15644,0.11588 0.57942,0.35924 0.66633,0.55044l0.00579,0.01159z"/>
    <path stroke="null" id="svg_3" d="m4.19282,3.35795c-0.16224,0 -0.27812,0.01738 -0.394,0.04635l0,0.01738l0.01738,0c0.07532,0.15644 0.21438,0.26074 0.30709,0.394l0.22018,0.46353l0.01738,-0.01738c0.13327,-0.0985 0.2028,-0.24915 0.2028,-0.48092c-0.05794,-0.06953 -0.06953,-0.13327 -0.11588,-0.2028c-0.05794,-0.0985 -0.18541,-0.14485 -0.26074,-0.22018l0.00579,0z"/>
   </g>
   <path stroke="null" id="svg_4" fill-rule="evenodd" fill="#ce8b2c" d="m55.43634,14.26835l8.30882,0c0.97342,0 1.90048,-0.197 2.65372,-0.55044c1.25733,-0.57942 1.85413,-1.35004 1.85413,-2.36402l0,-2.12066c0,-0.81118 -0.68371,-1.59339 -2.05113,-2.12066a7.2427,7.2427 0 0 0 -2.45093,-0.41718l-3.48808,0c-1.17042,0 -1.72086,-0.34765 -1.87731,-1.12407c-0.02318,-0.08691 -0.02318,-0.17382 -0.02318,-0.26653l0,-1.30369c0,-0.06953 0,-0.15644 0.02318,-0.24335c0.15644,-0.5968 0.46353,-0.75324 1.4833,-0.86912l8.50582,0l0,-1.92366l-8.09444,0c-1.17042,0 -1.79619,0.06953 -2.34084,0.24335c-1.70348,0.52147 -2.45093,1.36742 -2.45093,2.85073l0,1.68031c0,1.30369 1.46013,2.41037 3.94003,2.66531c0.26653,0.02318 0.55044,0.02318 0.84015,0.02318l2.98399,0c0.11588,0 0.22018,0 0.30709,0.02318c0.90389,0.08691 1.30369,0.24335 1.56442,0.57942c0.17382,0.17382 0.22018,0.33027 0.22018,0.53306l0,1.68031c0,0.197 -0.13327,0.46353 -0.40559,0.68371s-0.68371,0.37662 -1.23995,0.40559c-0.11588,0 -0.17382,0.02318 -0.28971,0.02318l-7.97276,0l0,1.91207zm30.79594,-3.33743c0,1.97001 1.4833,3.0709 4.44412,3.29108l0.84015,0.04635l7.50923,0l0,-1.91207l-7.57296,0c-1.73825,0 -2.31766,-0.41718 -2.31766,-1.43695l0,-9.94857l-2.89708,0l0,9.96595l-0.00579,-0.00579zm-16.14831,0.08691l0,-6.8429c0,-1.73825 1.23416,-2.80437 3.65032,-3.12884l0.77062,-0.04635l5.48127,0c0.28971,0 0.53306,0.02318 0.81118,0.04635c2.41037,0.33027 3.62135,1.3906 3.62135,3.12884l0,6.84869c0,1.41377 -0.50989,2.16701 -1.70348,2.66531l2.82755,2.56102l-3.33743,0l-2.30028,-2.07431l-2.31766,0.13327l-3.09408,0c-0.50989,0 -1.08351,-0.05794 -1.73825,-0.22018c-1.83095,-0.50989 -2.74064,-1.4833 -2.74064,-3.0709l0.06953,0zm3.11726,-0.15065c0,0.08691 0.04635,0.17382 0.06953,0.28971c0.15644,0.7938 0.90389,1.23416 2.05113,1.23416l2.60737,0l-2.38719,-2.16701l3.33743,0l2.09748,1.90048c0.40559,-0.22018 0.63736,-0.53306 0.73006,-0.92707c0.02318,-0.08691 0.02318,-0.197 0.02318,-0.28971l0,-6.5474c0,-0.08691 0,-0.17382 -0.02318,-0.26653c-0.15644,-0.75324 -0.90389,-1.17042 -2.02795,-1.17042l-4.34562,0c-1.27471,0 -2.12066,0.55044 -2.12066,1.43695l-0.01159,6.50684z"/>
   <path stroke="null" id="svg_5" fill-rule="evenodd" fill="#00678c" d="m17.08482,14.27994l2.8739,0l0,-11.37972l4.48468,9.9196c0.50989,1.1936 1.23995,1.63395 2.65372,1.63395s2.09748,-0.44036 2.63055,-1.63395l4.4615,-9.9196l0,11.37972l2.89708,0l0,-11.37972c0,-1.10089 -0.44036,-1.63395 -1.36742,-1.92366c-2.1844,-0.66053 -3.65032,-0.08691 -4.31085,1.3906l-4.40356,9.80951l-4.24132,-9.80951c-0.63736,-1.47751 -2.12066,-2.05113 -4.32824,-1.3906c-0.90389,0.28971 -1.35004,0.81118 -1.35004,1.92366l0,11.37972zm22.38283,-9.25906l2.89708,0l0,6.25769c-0.02318,0.34765 0.11588,1.14724 1.73825,1.17042l6.21134,0l0,-7.47446l2.89708,0l0,10.22669c0,2.52046 -3.11726,3.0709 -4.57738,3.09408l-9.09683,0l0,-1.92366l9.1258,0c1.85413,-0.197 1.63395,-1.12407 1.63395,-1.43695l0,-0.75324l-6.12442,0c-2.85073,-0.02318 -4.68168,-1.27471 -4.70486,-2.72325l0,-6.43731z"/>
  </g>
 </g>
</svg>